<?xml version="1.0" encoding="UTF-8" standalone="no"?>
<svg
   xmlns:dc="http://purl.org/dc/elements/1.1/"
   xmlns:cc="http://creativecommons.org/ns#"
   xmlns:rdf="http://www.w3.org/1999/02/22-rdf-syntax-ns#"
   xmlns:svg="http://www.w3.org/2000/svg"
   xmlns="http://www.w3.org/2000/svg"
   xmlns:sodipodi="http://sodipodi.sourceforge.net/DTD/sodipodi-0.dtd"
   xmlns:inkscape="http://www.inkscape.org/namespaces/inkscape"
   id="Lager_1"
   data-name="Lager 1"
   viewBox="0 0 316.99999 317"
   version="1.1"
   sodipodi:docname="IorsIT.svg"
   inkscape:version="0.92.4 (5da689c313, 2019-01-14)"
   width="317"
   height="317">
  <metadata
     id="metadata31">
    <rdf:RDF>
      <cc:Work
         rdf:about="">
        <dc:format>image/svg+xml</dc:format>
        <dc:type
           rdf:resource="http://purl.org/dc/dcmitype/StillImage" />
        <dc:title>IORS IT</dc:title>
      </cc:Work>
    </rdf:RDF>
  </metadata>
  <sodipodi:namedview
     pagecolor="#ffffff"
     bordercolor="#666666"
     borderopacity="1"
     objecttolerance="10"
     gridtolerance="10"
     guidetolerance="10"
     inkscape:pageopacity="0"
     inkscape:pageshadow="2"
     inkscape:window-width="1366"
     inkscape:window-height="705"
     id="namedview29"
     showgrid="false"
     inkscape:zoom="1.2939573"
     inkscape:cx="139.89713"
     inkscape:cy="223.88381"
     inkscape:window-x="-8"
     inkscape:window-y="-8"
     inkscape:window-maximized="1"
     inkscape:current-layer="text26" />
  <defs
     id="defs4">
    <style
       id="style2">.cls-1,.cls-5{fill:#39b54a;}.cls-2{fill:#006837;}.cls-3{fill:#444;}.cls-4{fill:#fff;}.cls-5{font-size:50px;font-family:MyriadPro-Regular, Myriad Pro;}</style>
  </defs>
  <title
     id="title6">IORS IT</title>
  <ellipse
     class="cls-1"
     cx="158.44"
     cy="158.87"
     rx="158.44"
     ry="158.13"
     id="ellipse8"
     style="fill:#006aa7;fill-opacity:1" />
  <ellipse
     class="cls-2"
     cx="158.44"
     cy="158.87"
     rx="132.10001"
     ry="131.06"
     id="ellipse10"
     style="fill:#fecc00;fill-opacity:1" />
  <g
     aria-label="Iors IT"
     style="font-style:normal;font-variant:normal;font-weight:normal;font-stretch:normal;font-size:50px;font-family:sans-serif;-inkscape-font-specification:Normal;fill:#006aa7;fill-opacity:1"
     id="text26">
    <path
       d="m 48.941162,129.26614 h 7.364583 v 54.43229 h -7.364583 z"
       style="font-style:normal;font-variant:normal;font-weight:normal;font-stretch:normal;font-size:74.66666412px;font-family:sans-serif;-inkscape-font-specification:sans-serif;fill:#006aa7;fill-opacity:1"
       id="path27" />
    <path
       d="m 86.493243,147.56822 q -5.395833,0 -8.531249,4.22916 -3.135417,4.19271 -3.135417,11.52084 0,7.32812 3.098958,11.55729 3.135417,4.19271 8.567708,4.19271 5.359375,0 8.494792,-4.22917 3.135416,-4.22917 3.135416,-11.52083 0,-7.25521 -3.135416,-11.48438 -3.135417,-4.26562 -8.494792,-4.26562 z m 0,-5.6875 q 8.75,0 13.744787,5.6875 4.9948,5.6875 4.9948,15.75 0,10.02604 -4.9948,15.75 -4.994787,5.6875 -13.744787,5.6875 -8.786458,0 -13.781249,-5.6875 -4.958333,-5.72396 -4.958333,-15.75 0,-10.0625 4.958333,-15.75 4.994791,-5.6875 13.781249,-5.6875 z"
       style="font-style:normal;font-variant:normal;font-weight:normal;font-stretch:normal;font-size:74.66666412px;font-family:sans-serif;-inkscape-font-specification:sans-serif;fill:#006aa7;fill-opacity:1"
       id="path29" />
    <path
       d="m 139.97762,149.13593 q -1.13021,-0.65625 -2.47917,-0.94792 -1.3125,-0.32813 -2.91667,-0.32813 -5.6875,0 -8.75,3.71875 -3.02604,3.6823 -3.02604,10.60938 v 21.51042 h -6.74479 v -40.83334 h 6.74479 v 6.34375 q 2.11459,-3.71875 5.50521,-5.50521 3.39063,-1.82291 8.23958,-1.82291 0.69271,0 1.53125,0.10937 0.83855,0.0729 1.85938,0.25521 z"
       style="font-style:normal;font-variant:normal;font-weight:normal;font-stretch:normal;font-size:74.66666412px;font-family:sans-serif;-inkscape-font-specification:sans-serif;fill:#006aa7;fill-opacity:1"
       id="path31" />
    <path
       d="m 173.11824,144.06822 v 6.34375 q -2.84375,-1.45834 -5.90625,-2.1875 -3.0625,-0.72917 -6.34375,-0.72917 -4.99479,0 -7.51041,1.53125 -2.47917,1.53125 -2.47917,4.59375 0,2.33333 1.78646,3.68229 1.78646,1.3125 7.18229,2.51563 l 2.29688,0.51041 q 7.14583,1.53125 10.13541,4.33855 3.02604,2.77083 3.02604,7.76562 0,5.6875 -4.52083,9.00521 -4.48437,3.31771 -12.35937,3.31771 -3.28125,0 -6.85417,-0.65625 -3.53646,-0.61979 -7.47396,-1.89584 v -6.92708 q 3.71875,1.93229 7.32813,2.91667 3.60937,0.94791 7.14583,0.94791 4.73958,0 7.29167,-1.60416 2.55208,-1.64063 2.55208,-4.59375 0,-2.73438 -1.85938,-4.19271 -1.82291,-1.45833 -8.05729,-2.80729 l -2.33333,-0.54688 q -6.23437,-1.3125 -9.00521,-4.01041 -2.77083,-2.73438 -2.77083,-7.47396 0,-5.76042 4.08333,-8.89584 4.08334,-3.13541 11.59375,-3.13541 3.71875,0 7,0.54687 3.28125,0.54688 6.05208,1.64063 z"
       style="font-style:normal;font-variant:normal;font-weight:normal;font-stretch:normal;font-size:74.66666412px;font-family:sans-serif;-inkscape-font-specification:sans-serif;fill:#006aa7;fill-opacity:1"
       id="path33" />
    <path
       d="m 210.08699,129.26614 h 7.36458 v 54.43229 h -7.36458 z"
       style="font-style:normal;font-variant:normal;font-weight:normal;font-stretch:normal;font-size:74.66666412px;font-family:sans-serif;-inkscape-font-specification:sans-serif;fill:#006aa7;fill-opacity:1"
       id="path35" />
    <path
       d="m 224.56094,129.26614 h 46.04688 v 6.19791 H 251.2849 v 48.23438 h -7.40104 v -48.23438 h -19.32292 z"
       style="font-style:normal;font-variant:normal;font-weight:normal;font-stretch:normal;font-size:74.66666412px;font-family:sans-serif;-inkscape-font-specification:sans-serif;fill:#006aa7;fill-opacity:1"
       id="path37" />
  </g>
  <text
     xml:space="preserve"
     style="font-style:normal;font-variant:normal;font-weight:normal;font-stretch:normal;font-size:40px;line-height:1.25;font-family:Xolonuim;-inkscape-font-specification:Xolonuim;letter-spacing:0px;word-spacing:0px;fill:#000000;fill-opacity:1;stroke:none"
     x="-144.06006"
     y="-3.9394608"
     id="text22"><tspan
       sodipodi:role="line"
       id="tspan20"
       x="-144.06006"
       y="31.451164" /></text>
</svg>
